<?xml version="1.0" encoding="UTF-8" standalone="no"?>
<!-- Created with Inkscape (http://www.inkscape.org/) -->

<svg
   version="1.1"
   id="svg1"
   width="500"
   height="500"
   viewBox="0 0 500 500"
   xmlns="http://www.w3.org/2000/svg"
   xmlns:svg="http://www.w3.org/2000/svg">
  <defs
     id="defs1" />
  <g
     id="g1">
    <path
       style="fill:#ffffff"
       d="m 225.64682,429.67699 c -1.375,-0.45694 -4.37984,-0.87566 -6.67742,-0.93048 -3.29663,-0.0787 -4.63564,-0.6795 -6.35069,-2.84968 -2.00752,-2.54026 -2.14652,-3.65542 -1.82258,-14.62131 l 0.35069,-11.87131 -7,-2.3309 c -3.85,-1.282 -7.78139,-2.80241 -8.73643,-3.37869 -0.95504,-0.57629 -2.20155,-1.04779 -2.77004,-1.04779 -0.56848,0 -4.78717,-1.8 -9.37486,-4 -4.5877,-2.2 -8.60506,-4 -8.92748,-4 -0.32242,0 -4.41984,3.825 -9.10538,8.5 -6.42189,6.40745 -9.17496,8.5 -11.18305,8.5 -5.67102,0 -26.77035,-17.84501 -41.974,-35.5 -8.62925,-10.02059 -14.428746,-18.13508 -14.428746,-20.1883 0,-0.97577 4.127766,-5.91912 9.172796,-10.98524 l 9.17282,-9.21111 -4.17472,-8.3877 c -3.17987,-6.38888 -11.1709,-26.75761 -11.1709,-28.47404 0,-0.13948 -5.780246,-0.25361 -12.845011,-0.25361 -15.54213,0 -15.72284,-0.12126 -17.31209,-11.61577 -1.59665,-11.54812 -2.22038,-43.76796 -0.99472,-51.38423 0.57531,-3.575 1.31329,-8.57674 1.63995,-11.11497 1.03763,-8.06276 1.51354,-8.31627 16.67943,-8.88503 l 13.332441,-0.5 1.33201,-4.5 c 2.16624,-7.31835 5.23693,-14.98782 9.36785,-23.39747 l 3.87933,-7.89747 -9.0396,-9.21783 c -5.44326,-5.55059 -9.039586,-10.03265 -9.039586,-11.26593 0,-6.59841 35.109166,-43.97866 49.396796,-52.592089 1.70675,-1.028934 3.25319,-2.266434 3.43652,-2.75 0.18334,-0.483565 1.52488,-0.87921 2.98121,-0.87921 1.99891,0 4.8704,2.213278 11.71606,9.030469 l 9.06818,9.03047 6.45061,-3.29411 c 7.23273,-3.69352 21.98384,-9.766829 23.72207,-9.766829 0.62394,0 2.28061,-0.522232 3.68149,-1.160515 2.51052,-1.14387 2.54705,-1.322477 2.54705,-12.452947 0,-13.352097 0.91312,-16.028741 5.91294,-17.332736 14.92523,-3.892619 53.25813,-4.135688 71.34735,-0.452414 5.26567,1.07218 5.73971,2.415845 5.73971,16.269152 v 12.727683 l 3.75,1.288302 c 12.1313,4.167674 21.52672,7.913034 27.20061,10.843164 l 6.45061,3.33125 9.06818,-9.03047 c 4.9875,-4.966757 9.87424,-9.030469 10.85944,-9.030469 1.97269,0 11.67116,6.01127 11.67116,7.233975 0,0.421314 0.4539,0.766024 1.00866,0.766024 2.81961,0 29.42968,26.53168 37.30668,37.19677 7.80576,10.56865 7.72413,12.16391 -1.06534,20.81935 -11.58208,11.40547 -10.93286,9.52296 -6.44871,18.69911 4.15926,8.51129 5.21945,11.11735 8.65903,21.28477 l 2.19891,6.5 12.42039,0.52954 c 13.06556,0.55705 15.36751,1.08732 16.39997,3.77787 1.80934,4.71505 3.01993,19.8446 3.01599,37.69259 -0.005,21.72184 -1.34472,35.09462 -3.90846,39.00738 -1.60194,2.44487 -1.88182,2.49262 -14.61017,2.49262 -7.13732,0 -12.97695,0.11413 -12.97695,0.25361 0,1.65556 -7.74392,21.30265 -11.05225,28.04065 l -4.31795,8.79426 8.6851,8.72552 c 10.22194,10.26952 10.60002,11.74641 5.00522,19.55198 -14.56377,20.31861 -44.40699,47.63398 -52.04216,47.63398 -2.32904,0 -4.18595,-1.26082 -8.46849,-5.75 -3.01692,-3.1625 -6.89481,-7.05882 -8.61753,-8.65848 l -3.13222,-2.90849 -8.47051,4.15849 c -4.65879,2.28716 -9.08222,4.15848 -9.82986,4.15848 -0.74764,0 -1.78685,0.39452 -2.30935,0.87671 -1.19088,1.09901 -12.93705,5.12329 -14.95398,5.12329 -1.25347,0 -1.49602,2.16889 -1.49602,13.37756 0,15.32869 -0.058,15.44653 -8.331,16.92642 -6.7236,1.20273 -56.4152,1.80749 -59.669,0.72618 z m 53.9151,-10.66318 3.0849,-0.61698 v -12.15249 c 0,-13.95532 0.79195,-15.96493 6.72554,-17.06643 5.24402,-0.97349 25.03407,-8.42755 29.27446,-11.02642 7.84782,-4.80983 12.64493,-6.5915 15.11815,-5.61496 1.31002,0.51726 5.94192,4.54914 10.29312,8.95973 l 7.91128,8.01927 6.08872,-4.62196 c 10.0135,-7.60126 26.82055,-24.92213 35.83589,-36.93145 0.60336,-0.80374 -1.7021,-3.79365 -7.16919,-9.29761 -4.43221,-4.46209 -8.55168,-9.0343 -9.15439,-10.16047 -0.91261,-1.70522 -0.2672,-3.66192 3.85994,-11.7024 5.39149,-10.50366 10.18967,-22.38189 12.67623,-31.38085 0.95197,-3.44524 2.34429,-6.1339 3.49548,-6.75 1.05231,-0.56318 7.3153,-1.02396 13.91776,-1.02396 h 12.00446 l 0.81128,-4.75 c 1.12076,-6.56204 0.83177,-49.06601 -0.35865,-52.75 l -0.9694,-3 -13.43034,-0.5 -13.43034,-0.5 -1.81691,-6 c -3.03012,-10.00641 -8.78816,-24.67749 -11.97049,-30.5 -1.65334,-3.025 -3.61227,-6.625 -4.35317,-8 -0.74091,-1.375 -1.34988,-3.12312 -1.35327,-3.8847 -0.003,-0.76159 4.05093,-5.52178 9.00959,-10.57821 l 9.01576,-9.19352 -2.84894,-3.92178 c -3.38753,-4.66319 -15.09452,-17.66998 -19.77398,-21.96945 -8.94078,-8.21473 -15.8152,-13.89881 -19.16996,-15.85058 -0.81057,-0.47158 -3.87035,1.9178 -8.56133,6.68552 -10.03181,10.19591 -11.82713,11.29839 -15.39111,9.45141 -1.5324,-0.79415 -5.71119,-2.97318 -9.28619,-4.84229 -9.90237,-5.17724 -20.73631,-9.5186 -27,-10.81938 -3.97396,-0.82528 -8.14748,-2.84849 -9.23469,-4.47672 -0.40408,-0.60517 -0.74158,-6.612799 -0.75,-13.350299 -0.008,-6.7375 -0.35281,-12.258749 -0.76531,-12.269442 -0.4125,-0.01069 -5.25,-0.671424 -10.75,-1.46829 -14.96867,-2.168732 -27.40024,-1.881519 -45.25,1.045433 l -3.25,0.532925 -0.0137,11.204687 c -0.0203,16.640016 1.09841,15.133526 -14.98635,20.181256 -5.81621,1.82524 -11.35603,3.99343 -14.23643,5.57187 -0.95504,0.52336 -2.18461,0.95156 -2.73239,0.95156 -0.54777,0 -4.04138,1.87037 -7.76357,4.15638 -3.72218,2.28601 -7.95828,4.16101 -9.41355,4.16667 -2.00138,0.008 -4.75432,-2.10762 -11.30102,-8.68387 -5.27487,-5.29867 -9.12335,-8.4226 -9.85406,-7.99885 -8.19746,4.75373 -28.93437,24.57715 -37.16906,35.53172 l -4.60547,6.12662 9.15101,9.33143 c 10.17472,10.37533 10.2683,10.69689 5.3705,18.45551 -3.86563,6.12355 -8.93255,17.85324 -12.05829,27.91439 -0.93979,3.025 -2.26077,7.075 -2.9355,9 l -1.2268,3.5 -13.544186,0.27777 -13.544205,0.27778 -0.81848,5.72222 c -1.05744,7.39279 -1.06271,44.29229 -0.007,50.47223 l 0.81127,4.75 h 12.004475 c 6.602456,0 12.806786,0.4294 13.787416,0.95422 0.98063,0.52481 2.56728,3.56231 3.52588,6.75 3.22673,10.72999 6.70994,19.7536 10.34346,26.79578 7.50206,14.53987 7.41528,14.32186 6.41355,16.11186 -0.52813,0.94371 -4.66225,5.44178 -9.18695,9.99571 l -8.22672,8.27988 2.34406,3.30627 c 6.99258,9.863 22.66569,26.07778 32.37378,33.49264 2.7462,2.0975 5.6246,4.41178 6.39643,5.14285 1.18326,1.12076 2.75193,-3.1e-4 10.0027,-7.1485 4.72965,-4.66274 9.53594,-8.75461 10.68065,-9.09305 1.36857,-0.40462 4.45056,0.64031 9,3.05139 12.09012,6.40745 13.72085,7.10818 26.81691,11.52327 10.40352,3.50735 13.00496,4.76788 13.71976,6.64793 0.48512,1.27597 0.88204,7.44526 0.88204,13.70954 v 11.38958 l 3.25,0.546 c 8.5661,1.4391 46.33872,1.37689 53.6651,-0.0884 z"
       id="path4" />
  </g>
</svg>
